PathFileType	4	(X/Y/Z)	5_coords_data.trc
DataRate	CameraRate	NumFrames	NumMarkers	Units	OrigDataRate	OrigDataStartFrame	OrigNumFrames
30.0	30.0	5	21	m	30.0	29	67
Frame#	Time	THUMB_TIP	THUMB_IP	THUMB_MCP	THUMB_CMC	INDEX_TIP	INDEX_DIP	INDEX_PIP	INDEX_MCP	MIDDLE_TIP	MIDDLE_DIP	MIDDLE_PIP	MIDDLE_MCP	RING_TIP	RING_DIP	RING_PIP	RING_MCP	PINKY_TIP	PINKY_DIP	PINKY_PIP	PINKY_MCP	WRIST
X1	Y1	Z1	X2	Y2	Z2	X3	Y3	Z3	X4	Y4	Z4	X5	Y5	Z5	X6	Y6	Z6	X7	Y7	Z7	X8	Y8	Z8	X9	Y9	Z9	X10	Y10	Z10	X11	Y11	Z11	X12	Y12	Z12	X13	Y13	Z13	X14	Y14	Z14	X15	Y15	Z15	X16	Y16	Z16	X17	Y17	Z17	X18	Y18	Z18	X19	Y19	Z19	X20	Y20	Z20	X21	Y21	Z21
28	0.9333333333333333	-0.016706199645996095	-0.14100799560546876	1.0197999877929687	-0.02204640007019043	-0.11725	1.0277900390625	-0.03991680145263672	-0.1006709976196289	1.04472998046875	-0.04265660095214844	-0.06684929656982422	1.0511500244140626	-0.022387500762939452	-0.10887400054931641	0.918677978515625	-0.029785299301147462	-0.10363899993896485	0.939656982421875	-0.03820800018310547	-0.09751239776611328	0.960760009765625	-0.047420101165771486	-0.08527690124511719	0.9952169799804688	-0.015618800163269043	-0.07410330200195313	0.9017620239257812	-0.021864200592041017	-0.07380930328369141	0.9260859985351563	-0.03210120010375977	-0.07146530151367188	0.9535770263671876	-0.04638330078125	-0.06505249786376953	0.9887769775390625	-0.016759199142456056	-0.04536489868164063	0.9061890258789063	-0.023216699600219725	-0.045053398132324216	0.9295020141601562	-0.03278609848022461	-0.044949199676513674	0.9550130004882813	-0.04205099868774414	-0.04604079818725586	0.989927978515625	-0.019302499771118163	-0.010920100212097168	0.9328829956054687	-0.024424100875854494	-0.016447799682617188	0.9522239990234375	-0.029595199584960936	-0.021780799865722657	0.9692349853515625	-0.03559429931640625	-0.02950720024108887	0.9935449829101562	-0.05956949996948242	-0.03607899856567383	1.0626199951171875
29	0.9666666666666667	-0.01691029930114746	-0.1411649932861328	1.0196599731445313	-0.022177299499511718	-0.11742400360107422	1.0276600341796875	-0.04015190124511719	-0.10081099700927734	1.0446400146484376	-0.0428760986328125	-0.06703579711914062	1.050969970703125	-0.022544300079345703	-0.10922899627685546	0.9186420288085938	-0.030042900085449218	-0.10397799682617187	0.9395479736328125	-0.03839899826049804	-0.09779139709472656	0.960625	-0.047667198181152344	-0.08551260375976563	0.9950670166015625	-0.015838700294494627	-0.07441790008544921	0.9016420288085938	-0.02207900047302246	-0.07408529663085937	0.9259849853515625	-0.03235309982299805	-0.0717582015991211	0.9534400024414063	-0.04663560104370117	-0.06528179931640625	0.988614013671875	-0.017089500427246093	-0.045674999237060546	0.9059990234375	-0.02353179931640625	-0.04535469818115234	0.929344970703125	-0.033068401336669925	-0.04525090026855469	0.9548330078125	-0.0423916015625	-0.04626539993286133	0.9897310180664063	-0.019667499542236327	-0.011248200416564942	0.9326270141601563	-0.024772199630737304	-0.016739299774169922	0.9521439819335937	-0.02987619972229004	-0.02204360008239746	0.9689600219726563	-0.035875598907470704	-0.029737600326538084	0.9932890014648438	-0.05976839828491211	-0.03621649932861328	1.062550048828125
30	1.0	-0.01715329933166504	-0.14141200256347655	1.0195800170898437	-0.022435699462890625	-0.11765899658203124	1.0275699462890624	-0.04034519958496094	-0.10112999725341797	1.0446099853515625	-0.043099498748779295	-0.06731089782714844	1.0509300537109374	-0.02296820068359375	-0.1095989990234375	0.9186170043945312	-0.030457000732421875	-0.10432099914550781	0.9395670166015625	-0.038719100952148436	-0.0981769027709961	0.9605980224609375	-0.048053600311279296	-0.08584480285644532	0.995073974609375	-0.01630820083618164	-0.07480059814453124	0.9015869750976563	-0.022570199966430664	-0.07446379852294922	0.9259769897460938	-0.03281179809570312	-0.07209169769287109	0.9534110107421875	-0.04700030136108398	-0.06561849975585937	0.9886270141601563	-0.0175408992767334	-0.04615499877929687	0.9058519897460937	-0.02398040008544922	-0.04576869964599609	0.9291859741210937	-0.03351219940185547	-0.045635398864746095	0.9547329711914062	-0.04275429916381836	-0.04659590148925781	0.9896710205078125	-0.020207799911499024	-0.011697400093078613	0.9325540161132813	-0.02530850028991699	-0.017136499404907225	0.9519760131835937	-0.03033489990234375	-0.022364299774169923	0.9688779907226562	-0.036281200408935545	-0.030096900939941405	0.9931389770507812	-0.05987779998779297	-0.03648699951171875	1.0624100341796876
31	1.0333333333333334	-0.01754050064086914	-0.14166700744628907	1.0194400024414063	-0.02282859992980957	-0.11789800262451172	1.027469970703125	-0.04064509963989258	-0.10136599731445313	1.044510009765625	-0.04336140060424805	-0.06755400085449219	1.0508499755859375	-0.02347439956665039	-0.1099729995727539	0.9185579833984375	-0.030994699478149413	-0.1046989974975586	0.9394769897460937	-0.039303798675537106	-0.0985020980834961	0.960510009765625	-0.048510799407958986	-0.08615769958496093	0.9949509887695313	-0.016826299667358397	-0.07525019836425781	0.9014819946289062	-0.02306450080871582	-0.07486900329589843	0.9258270263671875	-0.033290699005126954	-0.07245379638671876	0.9532540283203125	-0.04743090057373047	-0.06593129730224609	0.98860302734375	-0.01801409912109375	-0.04662009811401367	0.9057620239257812	-0.024434900283813475	-0.04621540069580078	0.9290430297851563	-0.033961299896240235	-0.04597140121459961	0.9546400146484375	-0.043187301635742185	-0.04689099884033203	0.989656005859375	-0.02066629981994629	-0.01215369987487793	0.9323309936523437	-0.025710100173950194	-0.017544200897216797	0.9516380004882813	-0.030747100830078124	-0.02272669982910156	0.9687579956054687	-0.036723201751708984	-0.03039889907836914	0.9930989990234375	-0.06007310104370117	-0.03670920181274414	1.06218994140625
32	1.0666666666666667	-0.018027099609375	-0.14195199584960938	1.019280029296875	-0.023272300720214845	-0.1181969985961914	1.0273199462890625	-0.041045398712158204	-0.10162699890136719	1.0444599609375	-0.043729598999023435	-0.06770130157470704	1.05081005859375	-0.023784099578857423	-0.11031300354003906	0.9185709838867188	-0.031388700485229494	-0.10501399993896485	0.9394409790039062	-0.039723201751708986	-0.09879850006103516	0.9604500122070313	-0.04891030120849609	-0.08641210174560547	0.9948489990234375	-0.017269899368286133	-0.0757251968383789	0.9014000244140625	-0.02352280044555664	-0.07529949951171876	0.9257880249023438	-0.03374980163574219	-0.07281520080566406	0.9532479858398437	-0.0477775993347168	-0.06619400024414063	0.9884509887695313	-0.01828630065917969	-0.0469922981262207	0.9056810302734375	-0.02476300048828125	-0.04654600143432617	0.9289990234375	-0.034284500122070315	-0.04628609848022461	0.9544609985351562	-0.04353879928588867	-0.047147998809814455	0.9894910278320312	-0.02079610061645508	-0.012525099754333496	0.9322509765625	-0.025910400390625	-0.017876399993896484	0.9515159912109376	-0.030982200622558593	-0.023013700485229494	0.9685380249023438	-0.03701259994506836	-0.03066830062866211	0.9928880004882813	-0.060354000091552736	-0.036922500610351565	1.0622099609375
